<svg xmlns="http://www.w3.org/2000/svg" width="196.4" height="130.469" viewBox="0 0 196.4 130.469">
  <metadata><?xpacket begin="﻿" id="W5M0MpCehiHzreSzNTczkc9d"?>
<x:xmpmeta xmlns:x="adobe:ns:meta/" x:xmptk="Adobe XMP Core 5.6-c138 79.159824, 2016/09/14-01:09:01        ">
   <rdf:RDF xmlns:rdf="http://www.w3.org/1999/02/22-rdf-syntax-ns#">
      <rdf:Description rdf:about=""/>
   </rdf:RDF>
</x:xmpmeta>
                                                                                                    
                                                                                                    
                                                                                                    
                                                                                                    
                                                                                                    
                                                                                                    
                                                                                                    
                                                                                                    
                                                                                                    
                                                                                                    
                                                                                                    
                                                                                                    
                                                                                                    
                                                                                                    
                                                                                                    
                                                                                                    
                                                                                                    
                                                                                                    
                                                                                                    
                                                                                                    
                           
<?xpacket end="w"?></metadata>
<defs>
    <style>
      .cls-1 {
        fill: #fff;
        fill-rule: evenodd;
      }
    </style>
  </defs>
  <path id="_02" data-name="02" class="cls-1" d="M1099.94,368c32.43,0,51.07-26.521,51.07-65.228s-18.64-65.227-51.07-65.227-51.08,26.521-51.08,65.227S1067.5,368,1099.94,368Zm0-27.955c-15.06,0-22.4-13.081-22.4-37.273s7.34-37.272,22.4-37.272,22.4,13.081,22.4,37.272S1114.99,340.04,1099.94,340.04Zm60.04,25.446h85.3v-27.6h-42.11l20.79-20.966c11.47-11.469,19.53-24.371,19.53-39.423,0-25.267-20.07-39.961-42.47-39.961-17.38,0-34.23,8.781-42.29,27.417l24.19,14.157c3.41-7.885,9.68-13.619,18.46-13.619,8.42,0,13.44,5.376,13.44,13.26,0,7.347-5.38,14.694-12.73,22.22L1159.98,344.7v20.787Z" transform="translate(-1048.88 -237.531)"/>
</svg>
