<svg xmlns="http://www.w3.org/2000/svg" width="196.4" height="130.469" viewBox="0 0 196.4 130.469"><defs><style>.cls-1 { fill: #fff; fill-rule: evenodd; }</style></defs><path id="_02" data-name="2" class="cls-1" d="M51.06 130.47c32.43 0 51.07-26.522 51.07-65.23S83.49.015 51.06.015-.02 26.534-.02 65.24s18.64 65.23 51.08 65.23zm0-27.956c-15.06 0-22.4-13.08-22.4-37.273S36 27.97 51.06 27.97s22.4 13.08 22.4 37.27-7.35 37.27-22.4 37.27zm60.04 25.446h85.3v-27.6h-42.11l20.79-20.966c11.47-11.47 19.53-24.37 19.53-39.423 0-25.266-20.07-39.96-42.47-39.96-17.38 0-34.23 8.78-42.29 27.417l24.19 14.157c3.41-7.885 9.68-13.62 18.46-13.62 8.42 0 13.44 5.377 13.44 13.26 0 7.348-5.38 14.695-12.73 22.22L111.1 107.17v20.786z"/></svg>