<svg xmlns="http://www.w3.org/2000/svg" width="199.91" height="130.469" viewBox="0 0 199.91 130.469">
  <metadata><?xpacket begin="﻿" id="W5M0MpCehiHzreSzNTczkc9d"?>
<x:xmpmeta xmlns:x="adobe:ns:meta/" x:xmptk="Adobe XMP Core 5.6-c138 79.159824, 2016/09/14-01:09:01        ">
   <rdf:RDF xmlns:rdf="http://www.w3.org/1999/02/22-rdf-syntax-ns#">
      <rdf:Description rdf:about=""/>
   </rdf:RDF>
</x:xmpmeta>
                                                                                                    
                                                                                                    
                                                                                                    
                                                                                                    
                                                                                                    
                                                                                                    
                                                                                                    
                                                                                                    
                                                                                                    
                                                                                                    
                                                                                                    
                                                                                                    
                                                                                                    
                                                                                                    
                                                                                                    
                                                                                                    
                                                                                                    
                                                                                                    
                                                                                                    
                                                                                                    
                           
<?xpacket end="w"?></metadata>
<defs>
    <style>
      .cls-1 {
        fill: #fff;
        fill-rule: evenodd;
      }
    </style>
  </defs>
  <path id="_03" data-name="03" class="cls-1" d="M1097.36,368c32.43,0,51.07-26.521,51.07-65.228s-18.64-65.227-51.07-65.227-51.07,26.521-51.07,65.227S1064.92,368,1097.36,368Zm0-27.955c-15.06,0-22.4-13.081-22.4-37.273s7.34-37.272,22.4-37.272,22.4,13.081,22.4,37.272S1112.41,340.04,1097.36,340.04Zm122.12-49.1,21.68-27.6V240.049h-80.64v26.879h45.88l-22.76,28.851,10.93,16.307h5.91c11.83,0,17.03,6.272,17.03,13.977s-5.2,13.977-17.03,13.977c-10.93,0-16.3-5.017-19.17-13.26l-24.73,14.335c7.71,18.458,24.91,26.88,43.9,26.88,24.19,0,45.7-14.336,45.7-41.932C1246.18,308.681,1234.89,296.316,1219.48,290.941Z" transform="translate(-1046.28 -237.531)"/>
</svg>
