<svg xmlns="http://www.w3.org/2000/svg" width="199.91" height="130.469" viewBox="0 0 199.91 130.469"><defs><style>.cls-1 { fill: #fff; fill-rule: evenodd; }</style></defs><path id="_03" data-name="3" class="cls-1" d="M51.08 130.47c32.43 0 51.07-26.522 51.07-65.23S83.51.015 51.08.015.01 26.534.01 65.24s18.63 65.23 51.07 65.23zm0-27.956c-15.06 0-22.4-13.08-22.4-37.273s7.34-37.27 22.4-37.27 22.4 13.08 22.4 37.27-7.35 37.27-22.4 37.27zm122.12-49.1l21.68-27.6V2.518h-80.64v26.88h45.88l-22.76 28.85 10.93 16.307h5.91c11.83 0 17.03 6.272 17.03 13.977s-5.2 13.977-17.03 13.977c-10.93 0-16.3-5.018-19.17-13.26l-24.73 14.334c7.71 18.458 24.91 26.88 43.9 26.88 24.19 0 45.7-14.336 45.7-41.932 0-17.382-11.29-29.747-26.7-35.122z"/></svg>