<svg xmlns="http://www.w3.org/2000/svg" width="162.187" height="34.93" viewBox="0 0 162.187 34.93"><defs><style>.cls-1 { fill: #ffc600; fill-rule: evenodd; }</style></defs><path id="logo" class="cls-1" d="M13.448.67H.006v33.61h13.442c9.264 0 16.32-7.3 16.32-16.8S22.713.67 13.45.67zm0 26.21h-5.76V8.07h5.76c5.28 0 8.928 3.64 8.928 9.41s-3.645 9.4-8.928 9.4zm28.8 0v-5.95h12v-7.3h-12V8.07h13.2V.67H34.566v33.61h21.122v-7.4h-13.44zm26.3 7.4h9.792L89.285.67h-8.4l-7.44 24.73L66.002.67h-8.4zM92.642.67v33.61h7.69V.67H92.65zm29.954 34.28a16.648 16.648 0 0 0 14.4-7.78l-6.625-3.84a8.637 8.637 0 0 1-7.775 4.13c-5.953 0-9.793-3.98-9.793-9.98s3.84-9.99 9.793-9.99a8.692 8.692 0 0 1 7.776 4.13l6.626-3.84a16.767 16.767 0 0 0-14.4-7.78 17.475 17.475 0 0 0 .003 34.95zm26.16-8.07v-5.95h12v-7.3h-12V8.07h13.2V.67h-20.88v33.61H162.2v-7.4h-13.442z"/></svg>