<svg xmlns="http://www.w3.org/2000/svg" width="162.187" height="34.938" viewBox="0 0 162.187 34.938">
  <metadata><?xpacket begin="﻿" id="W5M0MpCehiHzreSzNTczkc9d"?>
<x:xmpmeta xmlns:x="adobe:ns:meta/" x:xmptk="Adobe XMP Core 5.6-c138 79.159824, 2016/09/14-01:09:01        ">
   <rdf:RDF xmlns:rdf="http://www.w3.org/1999/02/22-rdf-syntax-ns#">
      <rdf:Description rdf:about=""/>
   </rdf:RDF>
</x:xmpmeta>
                                                                                                    
                                                                                                    
                                                                                                    
                                                                                                    
                                                                                                    
                                                                                                    
                                                                                                    
                                                                                                    
                                                                                                    
                                                                                                    
                                                                                                    
                                                                                                    
                                                                                                    
                                                                                                    
                                                                                                    
                                                                                                    
                                                                                                    
                                                                                                    
                                                                                                    
                                                                                                    
                           
<?xpacket end="w"?></metadata>
<defs>
    <style>
      .cls-1 {
        fill-rule: evenodd;
      }
    </style>
  </defs>
  <path id="logo" class="cls-1" d="M212.882,24.413H199.441v33.6h13.441c9.265,0,16.322-7.3,16.322-16.8S222.147,24.413,212.882,24.413Zm0,26.21h-5.76V31.806h5.76c5.281,0,8.929,3.648,8.929,9.409S218.163,50.624,212.882,50.624Zm28.8,0V44.671h12v-7.3h-12V31.806h13.2V24.413H234v33.6h21.122V50.624H241.681Zm26.3,7.393h9.793l10.945-33.6h-8.4l-7.441,24.722-7.441-24.722h-8.4Zm24.095-33.6v33.6h7.681v-33.6H292.08Zm29.954,34.275a16.64,16.64,0,0,0,14.4-7.777l-6.625-3.84a8.631,8.631,0,0,1-7.776,4.128c-5.953,0-9.793-3.984-9.793-9.985s3.84-9.985,9.793-9.985a8.686,8.686,0,0,1,7.776,4.128l6.625-3.84a16.759,16.759,0,0,0-14.4-7.777A17.034,17.034,0,0,0,304.56,41.215,17.034,17.034,0,0,0,322.034,58.688Zm26.159-8.065V44.671h12v-7.3h-12V31.806h13.2V24.413H340.512v33.6h21.122V50.624H348.193Z" transform="translate(-199.438 -23.75)"/>
</svg>
