<svg xmlns="http://www.w3.org/2000/svg" width="162.187" height="34.938" viewBox="0 0 162.187 34.938"><defs><style>.cls-1 { fill-rule: evenodd; }</style></defs><path id="logo" class="cls-1" d="M13.444.663H.004v33.6h13.44c9.265 0 16.322-7.3 16.322-16.8S22.71.663 13.444.663zm0 26.21h-5.76V8.056h5.76c5.28 0 8.93 3.648 8.93 9.41s-3.65 9.408-8.93 9.408zm28.8 0V20.92h12v-7.3h-12V8.057h13.2V.663H34.562v33.6h21.122v-7.39h-13.44zm26.3 7.393h9.793L89.282.666h-8.4l-7.44 24.722L66 .666h-8.4zM92.64.666v33.6h7.68V.666h-7.678zm29.953 34.275a16.64 16.64 0 0 0 14.4-7.776l-6.625-3.84a8.63 8.63 0 0 1-7.776 4.128c-5.953 0-9.793-3.984-9.793-9.985s3.84-9.985 9.792-9.985a8.686 8.686 0 0 1 7.776 4.128l6.625-3.84a16.76 16.76 0 0 0-14.4-7.777 17.034 17.034 0 0 0-17.47 17.472 17.034 17.034 0 0 0 17.473 17.473zm26.16-8.064V20.92h12v-7.3h-12V8.057h13.2V.663h-20.88v33.6h21.123v-7.39h-13.44z"/></svg>