<svg xmlns="http://www.w3.org/2000/svg" width="163.281" height="34.938" viewBox="0 0 163.281 34.938"><defs><style>.cls-1 { fill-rule: evenodd; }</style></defs><path id="logo" class="cls-1" d="M13.518.662H-.014v33.6h13.532c9.327 0 16.43-7.3 16.43-16.8S22.846.662 13.52.662zm0 26.207h-5.8V8.05h5.8c5.316 0 8.988 3.648 8.988 9.408s-3.672 9.41-8.988 9.41zm29 0v-5.953h12.078v-7.3H42.514V8.05h13.292V.662H34.782v33.6h21.264V26.87H42.514zm26.484 7.39h9.86L89.88.66h-8.458l-7.49 24.72L66.442.66h-8.458zM93.262.66v33.6h7.733V.66h-7.732zm30.157 34.272a16.782 16.782 0 0 0 14.5-7.776l-6.67-3.84a8.7 8.7 0 0 1-7.83 4.128c-5.992 0-9.858-3.984-9.858-9.984s3.866-9.984 9.858-9.984a8.76 8.76 0 0 1 7.83 4.128l6.67-3.84a16.9 16.9 0 0 0-14.5-7.776c-10.2 0-17.592 7.584-17.592 17.472s7.39 17.473 17.587 17.473zm26.34-8.064v-5.95h12.08v-7.3h-12.085V8.05h13.29V.662h-21.023v33.6h21.264V26.87h-13.53z"/></svg>